<svg width="232" height="52" viewBox="0 0 232 52" fill="none" xmlns="http://www.w3.org/2000/svg">
<g clip-path="url(#clip0_1_28732)">
<path d="M42.9929 27.8861C44.0061 27.8861 44.8893 28.0531 45.6414 28.3871C46.3935 28.721 46.9699 29.1991 47.3706 29.8213C47.7713 30.4436 47.9723 31.1836 47.9723 32.04C47.9723 32.8858 47.7713 33.6221 47.3706 34.2504C46.9699 34.8787 46.3935 35.3591 45.6414 35.6931C44.8893 36.0271 44.0073 36.1941 42.9929 36.1941H40.3527V39.5636H38.1807V27.8885H42.9929V27.8861ZM42.893 34.3573C43.84 34.3573 44.5584 34.1567 45.0481 33.7567C45.5379 33.3567 45.7835 32.7836 45.7835 32.0389C45.7835 31.2941 45.5379 30.7211 45.0481 30.3211C44.5584 29.921 43.84 29.7205 42.893 29.7205H40.3539V34.3573H42.893Z" fill="#1976D2" fill-opacity="0.87"/>
<path d="M57.5027 36.8595H51.6545L50.5016 39.5612H48.2622L53.5256 27.8861H55.664L60.943 39.5612H58.6712L57.5015 36.8595H57.5027ZM56.7843 35.1586L54.5785 30.0544L52.3897 35.1586H56.7843Z" fill="#1976D2" fill-opacity="0.87"/>
<path d="M66.4172 39.7282C65.5146 39.7282 64.6434 39.5996 63.8022 39.3449C62.9611 39.0891 62.2956 38.7503 61.8059 38.3275L62.558 36.6433C63.0369 37.0217 63.6242 37.3304 64.3209 37.5695C65.0164 37.8085 65.7155 37.9275 66.4172 37.9275C67.286 37.9275 67.9346 37.7881 68.3641 37.5106C68.7925 37.2331 69.0079 36.8655 69.0079 36.4103C69.0079 36.0763 68.8876 35.8012 68.6494 35.585C68.4099 35.3675 68.1067 35.1982 67.7384 35.0756C67.3714 34.9531 66.8696 34.8138 66.2342 34.6588C65.3437 34.4474 64.6217 34.236 64.0706 34.0246C63.5194 33.8132 63.0454 33.4828 62.6506 33.0323C62.2547 32.5818 62.0574 31.9728 62.0574 31.2064C62.0574 30.5613 62.2331 29.9751 62.5833 29.4466C62.9346 28.918 63.4629 28.4987 64.1705 28.1876C64.878 27.8765 65.7433 27.7203 66.7685 27.7203C67.4809 27.7203 68.1824 27.8092 68.8732 27.987C69.5639 28.1648 70.1595 28.4206 70.6613 28.7546L69.9766 30.4388C69.464 30.1385 68.9298 29.9103 68.3726 29.7553C67.8154 29.5991 67.2751 29.5222 66.7517 29.5222C65.8937 29.5222 65.2559 29.6664 64.8384 29.9559C64.4208 30.2454 64.2114 30.6286 64.2114 31.1067C64.2114 31.4407 64.3305 31.7133 64.57 31.9235C64.8095 32.1349 65.1127 32.3019 65.4809 32.4245C65.8479 32.547 66.3498 32.6851 66.9851 32.8413C67.8539 33.0419 68.5663 33.2498 69.1234 33.4671C69.6806 33.6834 70.1571 34.015 70.5519 34.4594C70.9478 34.9039 71.1451 35.5045 71.1451 36.2601C71.1451 36.9052 70.9694 37.489 70.6193 38.0115C70.2678 38.5341 69.736 38.9509 69.0236 39.262C68.3112 39.5732 67.4424 39.7293 66.4172 39.7293V39.7282Z" fill="#1976D2" fill-opacity="0.87"/>
<path d="M77.2858 39.7282C76.3832 39.7282 75.5121 39.5996 74.6709 39.3449C73.8298 39.0891 73.1644 38.7503 72.6746 38.3275L73.4267 36.6433C73.9056 37.0217 74.4928 37.3304 75.1896 37.5695C75.8851 37.8085 76.5841 37.9275 77.2858 37.9275C78.1549 37.9275 78.8035 37.7881 79.2329 37.5106C79.6609 37.2331 79.8764 36.8655 79.8764 36.4103C79.8764 36.0763 79.7563 35.8012 79.5182 35.585C79.2788 35.3675 78.9752 35.1982 78.6069 35.0756C78.2401 34.9531 77.7386 34.8138 77.1031 34.6588C76.2122 34.4474 75.4904 34.236 74.9393 34.0246C74.3882 33.8132 73.914 33.4828 73.5193 33.0323C73.1234 32.5818 72.9261 31.9728 72.9261 31.2064C72.9261 30.5613 73.1018 29.9751 73.4519 29.4466C73.8033 28.918 74.3316 28.4987 75.0392 28.1876C75.7468 27.8765 76.6118 27.7203 77.6374 27.7203C78.3493 27.7203 79.0509 27.8092 79.7417 27.987C80.4325 28.1648 81.0279 28.4206 81.5301 28.7546L80.8452 30.4388C80.3327 30.1385 79.7985 29.9103 79.2409 29.7553C78.6841 29.5991 78.144 29.5222 77.6206 29.5222C76.7625 29.5222 76.1246 29.6664 75.707 29.9559C75.2895 30.2454 75.0801 30.6286 75.0801 31.1067C75.0801 31.4407 75.1992 31.7133 75.4387 31.9235C75.6781 32.1349 75.9814 32.3019 76.3497 32.4245C76.7166 32.547 77.2181 32.6851 77.8536 32.8413C78.7227 33.0419 79.4353 33.2498 79.9921 33.4671C80.5497 33.6834 81.0257 34.015 81.4202 34.4594C81.8162 34.9039 82.0134 35.5045 82.0134 36.2601C82.0134 36.9052 81.838 37.489 81.4879 38.0115C81.1363 38.5341 80.605 38.9509 79.8924 39.262C79.1798 39.5732 78.3114 39.7293 77.2858 39.7293V39.7282Z" fill="#1976D2" fill-opacity="0.87"/>
<path fill-rule="evenodd" clip-rule="evenodd" d="M34.1205 40.5846L20.1436 40.5823V26.6717L34.1084 26.6428L34.1205 40.5835V40.5846ZM32.1349 38.5798H22.1206L22.1291 28.6429H22.3601H32.1L32.1349 38.5798ZM30.1241 36.6049L24.1435 36.5989V30.6563L30.1193 30.619L30.1229 36.6049H30.1241Z" fill="#1976D2" fill-opacity="0.87"/>
<path d="M26.1123 24.1538C25.3662 24.1538 24.6779 24.006 24.0486 23.7118C23.4192 23.4174 22.9042 23.003 22.5034 22.4696L23.7393 20.9848C24.3855 21.8738 25.1593 22.3195 26.0618 22.3195C27.276 22.3195 27.8824 21.6023 27.8824 20.168V14.1305H23.7224V12.313H30.0545V20.0515C30.0545 21.4197 29.7199 22.4444 29.0521 23.1291C28.3842 23.8126 27.4035 24.155 26.1111 24.155L26.1123 24.1538Z" fill="#1976D2" fill-opacity="0.87"/>
<path d="M42.8218 24.1537C41.6304 24.1537 40.5547 23.8955 39.5968 23.3778C38.639 22.8612 37.8868 22.1441 37.3417 21.2263C36.7954 20.3085 36.5234 19.2839 36.5234 18.1487C36.5234 17.0147 36.7966 15.9888 37.3417 15.071C37.8868 14.1533 38.639 13.4361 39.5968 12.9196C40.5547 12.4031 41.6293 12.1436 42.8218 12.1436C44.0131 12.1436 45.0889 12.4019 46.0468 12.9196C47.0046 13.4361 47.7567 14.1509 48.3018 15.0626C48.8481 15.9744 49.1201 17.0027 49.1201 18.1487C49.1201 19.2935 48.847 20.3229 48.3018 21.2347C47.7555 22.1464 47.0046 22.8612 46.0468 23.3778C45.0889 23.8943 44.0143 24.1537 42.8218 24.1537ZM42.8218 22.2522C43.6016 22.2522 44.3031 22.0768 44.9264 21.7272C45.5498 21.3764 46.0407 20.8876 46.397 20.2593C46.7531 19.631 46.9312 18.9283 46.9312 18.1499C46.9312 17.3715 46.7531 16.6687 46.397 16.0405C46.0407 15.4122 45.5498 14.9233 44.9264 14.5725C44.3031 14.2218 43.6003 14.0475 42.8218 14.0475C42.042 14.0475 41.3405 14.2229 40.7171 14.5725C40.0938 14.9233 39.6028 15.4122 39.2466 16.0405C38.8905 16.6687 38.7123 17.3715 38.7123 18.1499C38.7123 18.9283 38.8905 19.631 39.2466 20.2593C39.6028 20.8876 40.0938 21.3764 40.7171 21.7272C41.3405 22.078 42.0432 22.2522 42.8218 22.2522Z" fill="#1976D2" fill-opacity="0.87"/>
<path d="M60.2345 19.8677V23.9868H58.0624V19.9013L53.468 12.3118H55.7905L59.2152 17.9997L62.6736 12.3118H64.812L60.2345 19.8677Z" fill="#1976D2" fill-opacity="0.87"/>
<path fill-rule="evenodd" clip-rule="evenodd" d="M82.0141 25.3706L68.0369 25.3683V11.4577L82.0017 11.4288L82.0141 25.3694V25.3706ZM80.0284 23.3658H70.014L70.0224 13.4289H70.2534H79.9935L80.0284 23.3658ZM78.0172 21.3909L72.0368 21.3849V15.4423L78.0129 15.405L78.0165 21.3909H78.0172Z" fill="#1976D2" fill-opacity="0.87"/>
</g>
<rect width="16" height="32" transform="translate(82 10)" fill="#1976D2" fill-opacity="0.01"/>
<rect width="16" height="32" transform="translate(82 10)" fill="#1976D2" fill-opacity="0.01"/>
<path d="M105.506 14.4688V23H104.381V15.3945H100.174V23H99.043V14.4688H105.506ZM110.865 15.2246L108.041 23H106.886L110.138 14.4688H110.882L110.865 15.2246ZM113.232 23L110.402 15.2246L110.384 14.4688H111.129L114.392 23H113.232ZM113.086 19.8418V20.7676H108.293V19.8418H113.086ZM121.257 18.1367V19.0566H116.64V18.1367H121.257ZM116.816 14.4688V23H115.685V14.4688H116.816ZM122.241 14.4688V23H121.116V14.4688H122.241ZM129.821 22.0801V23H125.304V22.0801H129.821ZM125.532 14.4688V23H124.401V14.4688H125.532ZM129.223 18.1367V19.0566H125.304V18.1367H129.223ZM129.763 14.4688V15.3945H125.304V14.4688H129.763ZM136.856 14.4688V15.3945H132.954V14.4688H136.856ZM137.829 14.4688V23H136.698V14.4688H137.829ZM132.567 14.4688H133.692L133.498 18.6465C133.471 19.248 133.424 19.7852 133.358 20.2578C133.295 20.7266 133.205 21.1348 133.088 21.4824C132.971 21.8262 132.819 22.1113 132.631 22.3379C132.444 22.5605 132.213 22.7266 131.94 22.8359C131.67 22.9453 131.346 23 130.967 23H130.662V22.0801L130.897 22.0625C131.116 22.0469 131.303 21.998 131.459 21.916C131.62 21.8301 131.754 21.7012 131.864 21.5293C131.977 21.3574 132.069 21.1348 132.139 20.8613C132.209 20.5879 132.264 20.2539 132.303 19.8594C132.346 19.4609 132.379 18.9961 132.403 18.4648L132.567 14.4688ZM140.844 17.9434H143.17C143.795 17.9434 144.322 18.0488 144.752 18.2598C145.182 18.4668 145.508 18.7578 145.73 19.1328C145.953 19.5078 146.064 19.9473 146.064 20.4512C146.064 20.8262 146.002 21.1699 145.877 21.4824C145.752 21.791 145.566 22.0605 145.32 22.291C145.074 22.5176 144.771 22.6934 144.412 22.8184C144.053 22.9395 143.639 23 143.17 23H139.982V14.4688H141.113V22.0801H143.17C143.588 22.0801 143.926 22.0039 144.184 21.8516C144.445 21.6953 144.637 21.4922 144.758 21.2422C144.879 20.9922 144.939 20.7246 144.939 20.4395C144.939 20.1543 144.879 19.8926 144.758 19.6543C144.637 19.416 144.445 19.2266 144.184 19.0859C143.926 18.9414 143.588 18.8691 143.17 18.8691H140.844V17.9434ZM102.148 30.2246L99.3242 38H98.1699L101.422 29.4688H102.166L102.148 30.2246ZM104.516 38L101.686 30.2246L101.668 29.4688H102.412L105.676 38H104.516ZM104.369 34.8418V35.7676H99.5762V34.8418H104.369ZM113.795 37.0801V38H107.337V37.0801H113.795ZM107.519 37.0801V40.0977H106.4L106.394 37.0801H107.519ZM114.779 37.0801L114.767 40.0918H113.648V37.0801H114.779ZM112.687 29.4688V30.3945H108.949V29.4688H112.687ZM113.66 29.4688V38H112.535V29.4688H113.66ZM108.562 29.4688H109.693L109.517 32.9023C109.494 33.418 109.445 33.8945 109.371 34.332C109.296 34.7656 109.205 35.1621 109.095 35.5215C108.986 35.8809 108.861 36.2031 108.72 36.4883C108.58 36.7695 108.429 37.0137 108.269 37.2207C108.109 37.4238 107.941 37.5918 107.765 37.7246C107.593 37.8535 107.42 37.9453 107.244 38H106.728V37.0801H107.091C107.193 36.9707 107.308 36.8125 107.437 36.6055C107.57 36.3984 107.701 36.1309 107.83 35.8027C107.962 35.4707 108.078 35.0664 108.175 34.5898C108.277 34.1133 108.345 33.5508 108.38 32.9023L108.562 29.4688ZM116.616 29.4688H117.712L120.507 36.4238L123.296 29.4688H124.398L120.929 38H120.073L116.616 29.4688ZM116.259 29.4688H117.226L117.384 34.6719V38H116.259V29.4688ZM123.782 29.4688H124.749V38H123.624V34.6719L123.782 29.4688ZM128.063 36.043L132.264 29.4688H133.395V38H132.264V31.4199L128.063 38H126.938V29.4688H128.063V36.043ZM141.174 33.1367V34.0566H136.557V33.1367H141.174ZM136.733 29.4688V38H135.602V29.4688H136.733ZM142.159 29.4688V38H141.034V29.4688H142.159ZM145.496 36.043L149.697 29.4688H150.828V38H149.697V31.4199L145.496 38H144.371V29.4688H145.496V36.043ZM158.185 35.2871H159.31C159.252 35.8262 159.097 36.3086 158.847 36.7344C158.597 37.1602 158.244 37.498 157.787 37.748C157.33 37.9941 156.759 38.1172 156.076 38.1172C155.576 38.1172 155.121 38.0234 154.711 37.8359C154.304 37.6484 153.955 37.3828 153.662 37.0391C153.369 36.6914 153.142 36.2754 152.982 35.791C152.826 35.3027 152.748 34.7598 152.748 34.1621V33.3125C152.748 32.7148 152.826 32.1738 152.982 31.6895C153.142 31.2012 153.371 30.7832 153.668 30.4355C153.968 30.0879 154.33 29.8203 154.752 29.6328C155.173 29.4453 155.648 29.3516 156.175 29.3516C156.82 29.3516 157.365 29.4727 157.81 29.7148C158.255 29.957 158.601 30.293 158.847 30.7227C159.097 31.1484 159.252 31.6426 159.31 32.2051H158.185C158.13 31.8066 158.029 31.4648 157.88 31.1797C157.732 30.8906 157.521 30.668 157.248 30.5117C156.974 30.3555 156.617 30.2773 156.175 30.2773C155.796 30.2773 155.463 30.3496 155.173 30.4941C154.888 30.6387 154.648 30.8438 154.453 31.1094C154.261 31.375 154.117 31.6934 154.019 32.0645C153.921 32.4355 153.873 32.8477 153.873 33.3008V34.1621C153.873 34.5801 153.916 34.9727 154.002 35.3398C154.091 35.707 154.226 36.0293 154.406 36.3066C154.586 36.584 154.814 36.8027 155.091 36.9629C155.369 37.1191 155.697 37.1973 156.076 37.1973C156.556 37.1973 156.939 37.1211 157.224 36.9688C157.509 36.8164 157.724 36.5977 157.869 36.3125C158.017 36.0273 158.123 35.6855 158.185 35.2871ZM163.978 29.4688V38H162.864V29.4688H163.978ZM166.72 29.4688V30.3945H160.128V29.4688H166.72ZM171.282 34.6543H169.003V33.7344H171.282C171.723 33.7344 172.081 33.6641 172.354 33.5234C172.628 33.3828 172.827 33.1875 172.952 32.9375C173.081 32.6875 173.145 32.4023 173.145 32.082C173.145 31.7891 173.081 31.5137 172.952 31.2559C172.827 30.998 172.628 30.791 172.354 30.6348C172.081 30.4746 171.723 30.3945 171.282 30.3945H169.266V38H168.136V29.4688H171.282C171.927 29.4688 172.471 29.5801 172.917 29.8027C173.362 30.0254 173.7 30.334 173.93 30.7285C174.161 31.1191 174.276 31.5664 174.276 32.0703C174.276 32.6172 174.161 33.084 173.93 33.4707C173.7 33.8574 173.362 34.1523 172.917 34.3555C172.471 34.5547 171.927 34.6543 171.282 34.6543ZM178.205 30.2246L175.381 38H174.227L177.479 29.4688H178.223L178.205 30.2246ZM180.573 38L177.743 30.2246L177.725 29.4688H178.469L181.733 38H180.573ZM180.426 34.8418V35.7676H175.633V34.8418H180.426ZM185.416 29.4688V38H184.303V29.4688H185.416ZM188.158 29.4688V30.3945H181.566V29.4688H188.158ZM195.978 33.4648V34.0039C195.978 34.6445 195.898 35.2188 195.738 35.7266C195.578 36.2344 195.347 36.666 195.046 37.0215C194.746 37.377 194.384 37.6484 193.963 37.8359C193.545 38.0234 193.076 38.1172 192.556 38.1172C192.052 38.1172 191.589 38.0234 191.168 37.8359C190.75 37.6484 190.386 37.377 190.078 37.0215C189.773 36.666 189.537 36.2344 189.369 35.7266C189.201 35.2188 189.117 34.6445 189.117 34.0039V33.4648C189.117 32.8242 189.199 32.252 189.363 31.748C189.531 31.2402 189.767 30.8086 190.072 30.4531C190.377 30.0938 190.738 29.8203 191.156 29.6328C191.578 29.4453 192.041 29.3516 192.545 29.3516C193.064 29.3516 193.533 29.4453 193.951 29.6328C194.373 29.8203 194.734 30.0938 195.035 30.4531C195.339 30.8086 195.572 31.2402 195.732 31.748C195.896 32.252 195.978 32.8242 195.978 33.4648ZM194.859 34.0039V33.4531C194.859 32.9453 194.806 32.4961 194.701 32.1055C194.599 31.7148 194.449 31.3867 194.25 31.1211C194.05 30.8555 193.806 30.6543 193.517 30.5176C193.232 30.3809 192.908 30.3125 192.545 30.3125C192.193 30.3125 191.875 30.3809 191.589 30.5176C191.308 30.6543 191.066 30.8555 190.863 31.1211C190.664 31.3867 190.509 31.7148 190.4 32.1055C190.291 32.4961 190.236 32.9453 190.236 33.4531V34.0039C190.236 34.5156 190.291 34.9688 190.4 35.3633C190.509 35.7539 190.666 36.084 190.869 36.3535C191.076 36.6191 191.32 36.8203 191.601 36.957C191.886 37.0938 192.205 37.1621 192.556 37.1621C192.923 37.1621 193.25 37.0938 193.535 36.957C193.82 36.8203 194.06 36.6191 194.255 36.3535C194.455 36.084 194.605 35.7539 194.707 35.3633C194.808 34.9688 194.859 34.5156 194.859 34.0039ZM200.968 34.6543H198.689V33.7344H200.968C201.409 33.7344 201.767 33.6641 202.04 33.5234C202.314 33.3828 202.513 33.1875 202.638 32.9375C202.767 32.6875 202.831 32.4023 202.831 32.082C202.831 31.7891 202.767 31.5137 202.638 31.2559C202.513 30.998 202.314 30.791 202.04 30.6348C201.767 30.4746 201.409 30.3945 200.968 30.3945H198.952V38H197.821V29.4688H200.968C201.613 29.4688 202.157 29.5801 202.603 29.8027C203.048 30.0254 203.386 30.334 203.616 30.7285C203.847 31.1191 203.962 31.5664 203.962 32.0703C203.962 32.6172 203.847 33.084 203.616 33.4707C203.386 33.8574 203.048 34.1523 202.603 34.3555C202.157 34.5547 201.613 34.6543 200.968 34.6543ZM207.891 30.2246L205.067 38H203.913L207.165 29.4688H207.909L207.891 30.2246ZM210.259 38L207.429 30.2246L207.411 29.4688H208.155L211.419 38H210.259ZM210.112 34.8418V35.7676H205.319V34.8418H210.112Z" fill="#1976D2" fill-opacity="0.87"/>
<rect x="0.5" y="0.5" width="231" height="51" rx="3.5" stroke="#1976D2"/>
<defs>
<clipPath id="clip0_1_28732">
<rect width="62" height="29" fill="white" transform="translate(20 11.5)"/>
</clipPath>
</defs>
</svg>
